<svg preserveAspectRatio="xMidYMid meet" viewBox="185.39999999999998 205.20000000000002 507.59999999999997 496.80000000000007" xmlns="http://www.w3.org/2000/svg" version="1.0" style="max-height: 500px" width="507.59999999999997" height="496.80000000000007">
<metadata>
Created by potrace 1.10, written by Peter Selinger 2001-2011
</metadata>
<g stroke="none" fill="#000000" transform="translate(0.000000,900.000000) scale(0.100000,-0.100000)">
<path d="M6470 6869 c-114 -32 -201 -71 -287 -129 -24 -17 -47 -30 -51 -30 -4&#10;0 -18 -10 -32 -22 -14 -13 -43 -36 -65 -53 -83 -62 -201 -184 -286 -297 -49&#10;-64 -89 -120 -89 -124 0 -4 -7 -15 -16 -25 -26 -29 -11 -46 43 -51 38 -4 53&#10;-1 71 15 12 11 22 24 22 29 0 5 26 44 59 86 163 213 379 387 585 470 64 26 92&#10;32 155 32 65 0 82 -4 114 -25 62 -43 82 -129 56 -242 -18 -77 -65 -181 -118&#10;-263 -20 -30 -39 -62 -42 -70 -18 -42 -236 -270 -314 -328 -140 -104 -205&#10;-141 -345 -193 -39 -14 -179 -24 -216 -15 -39 10 -84 81 -84 132 0 24 5 46 11&#10;49 33 21 111 -25 164 -98 l20 -28 65 21 c90 28 146 56 154 75 6 17 -18 97 -41&#10;135 -42 67 -120 113 -222 130 -31 5 -85 14 -121 20 -36 6 -85 15 -110 20 -25&#10;6 -76 15 -115 20 -38 6 -110 17 -160 25 -49 9 -130 22 -180 29 -120 19 -210&#10;35 -269 48 -26 6 -74 14 -105 18 -53 8 -111 17 -247 41 -50 9 -71 8 -120 -7&#10;-32 -9 -75 -27 -94 -39 -33 -22 -2098 -2083 -2138 -2135 -59 -76 -70 -203 -27&#10;-287 35 -66 1632 -1671 1690 -1698 55 -26 185 -26 240 0 27 12 228 205 637&#10;614 329 328 600 602 603 610 3 8 -1 21 -10 31 -8 9 -15 20 -15 25 0 4 -20 41&#10;-45 82 -25 40 -45 76 -45 79 0 3 -37 67 -81 141 l-82 136 -17 -34 c-9 -19 -31&#10;-60 -48 -91 -37 -67 -82 -149 -124 -228 -17 -30 -41 -74 -55 -97 l-25 -43&#10;-159 -1 c-87 -1 -165 -2 -171 -3 -7 -1 -14 11 -16 25 -3 26 48 116 239 419&#10;135 215 164 261 180 288 16 26 15 29 -5 57 -12 17 -40 59 -61 95 -21 36 -42&#10;67 -45 70 -4 3 -37 55 -74 115 -86 141 -117 191 -184 293 -29 46 -51 90 -48&#10;98 4 11 37 14 178 14 95 0 178 -4 185 -8 7 -4 23 -28 36 -52 31 -58 79 -145&#10;119 -217 17 -32 44 -83 60 -113 15 -30 33 -55 40 -55 7 0 23 18 35 40 12 22&#10;28 51 36 65 7 14 31 56 52 94 20 38 55 98 76 133 22 35 39 67 39 72 0 5 7 17&#10;16 25 23 23 352 24 361 1 3 -9 -1 -23 -9 -33 -8 -9 -62 -95 -119 -190 -57 -95&#10;-111 -184 -119 -196 -8 -13 -46 -75 -84 -137 -38 -63 -75 -121 -81 -129 -15&#10;-18 -11 -33 25 -85 15 -22 53 -80 85 -130 32 -49 72 -112 90 -140 18 -27 49&#10;-76 69 -107 20 -32 42 -58 50 -58 11 0 189 179 693 695 37 38 53 91 52 175 0&#10;47 -5 108 -10 135 -5 28 -14 79 -19 115 -5 36 -14 85 -19 110 -6 25 -15 79&#10;-21 120 -6 41 -18 116 -26 165 -7 50 -18 119 -23 155 -6 36 -15 88 -20 115 -6&#10;28 -13 71 -16 98 -7 52 -16 56 -68 33 -64 -28 -134 -44 -222 -51 -49 -4 -95&#10;-11 -101 -16 -6 -5 -32 -15 -57 -23 -40 -12 -53 -12 -98 1 -69 20 -130 81&#10;-154 153 -17 50 -17 55 1 107 23 68 73 129 97 120 12 -4 17 -18 17 -46 0 -84&#10;62 -173 149 -212 180 -79 554 85 836 366 71 71 205 234 205 249 0 3 12 22 26&#10;43 58 86 110 215 130 328 32 179 -31 305 -179 357 -64 22 -133 22 -217 -3z&#10;m-2450 -2095 c102 -44 149 -84 203 -171 53 -86 62 -128 62 -284 0 -92 -4 -151&#10;-11 -160 -6 -8 -14 -27 -18 -43 -8 -35 -75 -126 -113 -155 -15 -11 -33 -25&#10;-39 -30 -6 -5 -19 -11 -30 -15 -10 -4 -27 -13 -38 -21 -17 -13 -17 -15 7 -47&#10;13 -18 28 -43 32 -55 3 -13 11 -23 16 -23 5 0 9 -5 9 -11 0 -6 20 -45 45 -86&#10;25 -40 45 -76 45 -80 0 -3 15 -31 34 -62 65 -107 95 -171 90 -186 -7 -17 -15&#10;-17 -204 -15 -145 1 -131 -8 -202 129 -79 151 -151 285 -173 321 -12 19 -24&#10;43 -28 53 -5 14 -20 17 -92 17 l-85 0 0 -249 c0 -187 -3 -251 -12 -259 -17&#10;-14 -261 -24 -293 -12 l-25 10 0 723 c0 398 3 727 7 731 4 4 179 6 388 4 351&#10;-4 383 -6 425 -24z"/>
<path d="M3535 4508 c-3 -8 -4 -95 -3 -193 l3 -180 166 0 166 0 36 28 c50 38&#10;72 88 71 163 -1 75 -22 124 -71 161 -36 28 -39 28 -200 31 -131 3 -164 1 -168&#10;-10z"/>
</g>
</svg>